<svg id="Layer_1" data-name="Layer 1" xmlns="http://www.w3.org/2000/svg" viewBox="0 0 407.97 397.89"><defs><style>.cls-1{fill:#fff;}.cls-2{fill:#010101;}</style></defs><g id="Layer_2" data-name="Layer 2"><g id="Layer_1-2" data-name="Layer 1-2"><path class="cls-1" d="M408,334.76a10.52,10.52,0,0,1-10.52,10.54H278.38a2.88,2.88,0,0,1-2.88-2.88h0V18.91a13.88,13.88,0,0,1,13.4-14,13.67,13.67,0,0,1,13.92,13.4V324.2H397.5A10.54,10.54,0,0,1,408,334.74Z" transform="translate(-0.07 0)"/><path class="cls-2" d="M123.5,343.56c-.93-37.32-31.94-67.6-69.35-67.6A69,69,0,0,0,.5,301.32V180.18A27.55,27.55,0,0,1,28,152.67l23.42.24a3.19,3.19,0,0,0,3.25-3.12l3-105.18A45.19,45.19,0,0,1,103.14.5h90.58a10.39,10.39,0,0,1,10.11,7.94l47.52,194.35c.28,1.18.38,11,.5,23.37.06,5,.11,10.6.19,16.44l-.17,56.75a69.37,69.37,0,0,0-122.26,44.21Zm-33.23-192L142.5,204.3h77.36L178.6,33.37H90.25Z" transform="translate(-0.07 0)"/><path class="cls-2" d="M193.72,1a9.91,9.91,0,0,1,9.63,7.56L250.86,202.9c.27,1.13.37,11.37.49,23.22.06,5,.11,10.63.19,16.51L251.38,298a69.87,69.87,0,0,0-122.26,45H124A69.91,69.91,0,0,0,1,299.94V225.79H1V180.18a27,27,0,0,1,27-27h.27l23.19.23a3.69,3.69,0,0,0,3.71-3.61l1.51-52.59,1.51-52.58A44.91,44.91,0,0,1,103.14,1h90.58M142.26,204.8H220.5l-.3-1.24-41-169.92-.19-.76H89.75V151.76l.29.29L142,204.5l.29.3M193.72,0H103.14A45.92,45.92,0,0,0,57.23,44.6q-1.51,52.59-3,105.17a2.72,2.72,0,0,1-2.73,2.64h0l-23.15-.23h-.28a28,28,0,0,0-28,28v44.61h0v78a68.88,68.88,0,0,1,123,41.32h7.12a68.87,68.87,0,0,1,122.26-43.33l.17-58.1h0c-.27-20.8-.3-38.19-.71-39.92L204.32,8.32A10.92,10.92,0,0,0,193.72,0Zm-51,203.8-52-52.45V33.88h87.46l41,169.92Z" transform="translate(-0.07 0)"/><ellipse class="cls-1" cx="54.47" cy="344.62" rx="53.29" ry="53.27"/><ellipse class="cls-1" cx="199.2" cy="344.13" rx="53.29" ry="53.27"/><circle class="cls-2" cx="54.47" cy="344.62" r="6.56"/><circle class="cls-2" cx="199.2" cy="344.13" r="6.56"/></g></g></svg>