<svg xmlns="http://www.w3.org/2000/svg" viewBox="0 0 1029.45 921"><defs><style>.cls-1,.cls-2{fill:#fff;stroke:#010101;stroke-miterlimit:10;}.cls-1{stroke-width:25px;}.cls-2{stroke-width:8px;}.cls-3{fill:#010101;}.cls-4{fill:#64d86b;}</style></defs><g id="Layer_2" data-name="Layer 2"><g id="Layer_2-2" data-name="Layer 2"><circle class="cls-1" cx="514.04" cy="460.5" r="448"/><circle class="cls-2" cx="514.04" cy="460.5" r="427.74"/><path d="M196.41,207.46l53.34,34.87L238.86,259,212.27,241.6l21.22,25.59-9.35,14.31-32-9.17,26.59,17.38-10.94,16.73L154.5,271.57l13.4-20.49,39.7,9.18-24.53-32.38Z"/><path d="M272.34,215a31.66,31.66,0,0,1-16.69-.76,34.33,34.33,0,0,1-22.45-25.08,31.36,31.36,0,0,1,1.11-16.64,34.59,34.59,0,0,1,24.58-22,31.11,31.11,0,0,1,16.59.79,34.62,34.62,0,0,1,22.45,25.08A31.38,31.38,0,0,1,296.88,193a34.13,34.13,0,0,1-24.54,22Zm7-30.71q-.13-5-4.46-9.84t-9.35-5.59q-5-.69-9.39,3.28t-4.36,9q.15,5,4.52,9.9t9.29,5.52q5,.69,9.46-3.33T279.33,184.24Z"/><path d="M381.09,145.38l-17.64,9.4-33.73-18.33,15.07,28.27-17.64,9.4-30-56.24,17.63-9.39,34,18.8L333.49,98.54l17.63-9.4Z"/><path d="M407.31,87l2.13,7.53,19.05-5.41,4.11,14.46L413.55,109l2.45,8.66,21.65-6.15L442,126.85l-40.87,11.6-17.39-61.3,40.86-11.6L429,80.87Z"/><path d="M518,54.92,498.3,100.79l1.36,19.3-19.93,1.41-1.36-19.3L452.44,59.55l22.81-1.61L487,79.76l8.55-23.25Z"/><path d="M654.5,119.64a15.48,15.48,0,0,1,0,10.19q-2.65,7.93-9.34,10.5t-16.51-.71L597,129.05,617.11,68.6l30.82,10.28q9.23,3.09,13.18,8.86t1.39,13.46a15.07,15.07,0,0,1-5.75,8,13.91,13.91,0,0,1-9,2.36A15.2,15.2,0,0,1,654.5,119.64Zm-20.78,3.7a4.09,4.09,0,0,0,2.31-2.79q1.46-4.35-3.59-6l-8.62-2.87L621,120.18l8.62,2.87A6.41,6.41,0,0,0,633.72,123.34ZM628.2,98.49l7.35,2.45a6.18,6.18,0,0,0,4.14.24A4.07,4.07,0,0,0,642,98.44a4.33,4.33,0,0,0-.14-3.7,6,6,0,0,0-3.44-2.34L631.05,90Z"/><path d="M705.89,167.3l-18.11-11.1-7.72,6.56-17.87-11,53.18-42.13,19.64,12-13.52,66.46-18-11ZM709.61,152,714,133.82l-14.18,12.1Z"/><path d="M769.92,165.78a27.58,27.58,0,0,1,15.84-.39,32.93,32.93,0,0,1,14.74,8.94A34.16,34.16,0,0,1,808.78,187a27.39,27.39,0,0,1,1.3,13.71,31.71,31.71,0,0,1-5.5,13.21L789.69,199a11.47,11.47,0,0,0,.57-6.36,10.87,10.87,0,0,0-3.06-5.54,9.52,9.52,0,0,0-8.3-3q-4.74.6-9.26,5.12t-5.12,9.26a9.52,9.52,0,0,0,3,8.31,10.74,10.74,0,0,0,5.54,3,11.47,11.47,0,0,0,6.36-.57l14.9,14.88a31.73,31.73,0,0,1-13.21,5.51,27.28,27.28,0,0,1-13.71-1.3,34.12,34.12,0,0,1-12.67-8.27,33,33,0,0,1-8.94-14.73,27.58,27.58,0,0,1,.37-15.84,38.91,38.91,0,0,1,23.8-23.81Z"/><path d="M808.81,289.58l13.77-30.29L799.07,273.8l-10.49-17,54.22-33.47,10.5,17-22.83,14.08,32.42,1.46,11.87,19.23-37.5-2.67-16,37.36Z"/><path d="M818.13,692.77a7.83,7.83,0,0,0,4.32-1,12.07,12.07,0,0,0,3.9-3.62q3.39-4.67,2.21-9.41t-6.42-8.54q-6-4.4-11.09-3.72t-9.33,6.58a13.36,13.36,0,0,0-2,12.31l9.36-12.9,11.43,8.3-19.07,26.3-16.18-11.73A38.47,38.47,0,0,1,782.06,679q.16-8.9,6.72-17.92a34.75,34.75,0,0,1,13.44-11.55,27.74,27.74,0,0,1,15.89-2.37,38.19,38.19,0,0,1,27.25,19.77,27.84,27.84,0,0,1,2.7,15.81,34.29,34.29,0,0,1-6.72,16.24q-7.35,10.13-16.85,13a23.91,23.91,0,0,1-18.73-2.08Z"/><path d="M785.4,760.29l-23.55-27.1a11.36,11.36,0,0,0-6-4c-2.09-.44-4.23.28-6.4,2.17s-3.22,3.93-3.14,6.13a10.79,10.79,0,0,0,3,6.62l23.56,27.1-15,13-23.55-27.1a30.12,30.12,0,0,1-7.33-14.2,24.29,24.29,0,0,1,1.46-14.09,32.73,32.73,0,0,1,9-12.07,30.78,30.78,0,0,1,13-7,23,23,0,0,1,13.69.86q6.84,2.52,12.86,9.45l23.56,27.11Z"/><path d="M667.49,775.54l18.8-9.89-1.69-10,18.56-9.76,9,67.25L691.8,823.87l-50.21-45.58,18.63-9.8Zm11.3,11,13.36,13L689,781.22Z"/><path d="M594.82,791.48l17.4,19.06.08,0-5.82-22.11,19.33-5.09L642,845l-28.72,7.56a29.32,29.32,0,0,1-13.49.71A19.14,19.14,0,0,1,590,848.1a20.93,20.93,0,0,1-5.37-9.62,19,19,0,0,1,.55-11.87,19.49,19.49,0,0,1,8.07-9.48l-19.61-20ZM615.7,823.4l-7.66,2a6.25,6.25,0,0,0-3.85,2.36,6.27,6.27,0,0,0,2.1,7.78,5.94,5.94,0,0,0,4.5.3l7.66-2Z"/><path d="M514.93,810.85l21.23-.69,2.84-9.72,21-.68L538.71,864.2l-23,.74L490.43,802l21-.68Zm5.34,14.86,6.33,17.54,5.19-17.91Z"/><path d="M414.29,787.66l19.56,4.08L448,827.42l6.54-31.37,19.56,4.08-13,62.38-19.56-4.08L427.5,822.22l-6.65,31.89L401.29,850Z"/><path d="M322.62,817.68l6.55-14.42,15.41,7,19.79-43.59,18.2,8.26-19.8,43.59L378,825.43l-6.55,14.43Z"/><path d="M289.82,777.61l4.53-6.38-16.14-11.47,8.71-12.25L303.06,759l5.21-7.34-18.34-13,9.22-13,34.63,24.6-36.9,51.95-34.63-24.6,9.23-13Z"/><path d="M235.73,731.35l5.62-5.46-13.79-14.2,10.78-10.47,13.79,14.21,6.46-6.27L242.92,693l11.43-11.09,29.59,30.48-45.72,44.38L208.63,726.3l11.43-11.1Z"/><circle class="cls-1" cx="514.04" cy="460.5" r="300.99"/><rect class="cls-3" y="376.24" width="1029.45" height="165.45"/><path class="cls-4" d="M332.56,439.1V410.28h47V511.55H347.24V439.1Z"/><path class="cls-4" d="M401.06,421.78q10.19-13.71,31.38-13.71t31.3,13.78Q474,435.64,474,459.46t-10.26,37.75Q453.5,511,432.44,511t-31.38-13.78q-10.19-13.79-10.18-37.75T401.06,421.78Zm40.38,21q-2.22-5.61-9-5.61-6.93,0-9.15,5.61t-2.21,16.69q0,11.22,2.21,16.83t9.15,5.61q6.78,0,9-5.61t2.22-16.83Q443.66,448.38,441.44,442.77Z"/><path class="cls-4" d="M492.76,421.78q10.19-13.71,31.38-13.71t31.31,13.78q10.24,13.78,10.25,37.61t-10.25,37.75Q545.19,511,524.14,511t-31.38-13.78q-10.17-13.79-10.18-37.75T492.76,421.78Zm40.39,21q-2.22-5.61-9-5.61T515,442.77q-2.22,5.61-2.22,16.69T515,476.29q2.21,5.61,9.14,5.61t9-5.61q2.21-5.61,2.21-16.83T533.15,442.77Z"/><path class="cls-4" d="M579.69,418.11q6.93-6.45,18.15-6.44t17.94,6.44q6.86,6.43,6.86,18.63t-6.86,18.57q-6.85,6.36-17.94,6.37t-18.15-6.37q-6.93-6.37-6.92-18.57T579.69,418.11Zm13.16,18.63q0,7.06,4.71,7.07a4.43,4.43,0,0,0,3.81-1.8,8.85,8.85,0,0,0,1.32-5.27,9.11,9.11,0,0,0-1.32-5.4,4.43,4.43,0,0,0-3.81-1.8Q592.85,429.54,592.85,436.74Zm82.57-23.69-51.67,98.5H594.38l51.67-98.5Zm-21.34,56.18q6.93-6.45,18-6.44t18,6.44q6.79,6.43,6.79,18.63t-6.79,18.63q-6.78,6.45-18,6.44t-18-6.44q-6.93-6.44-6.92-18.63T654.08,469.23Zm13,18.63q0,7.2,4.84,7.2a4.31,4.31,0,0,0,3.68-1.8,11.64,11.64,0,0,0,0-10.73,4.25,4.25,0,0,0-3.68-1.87Q667.11,480.66,667.11,487.86Z"/><polygon class="cls-3" points="513.74 201.94 519.74 220.41 539.16 220.41 523.45 231.83 529.45 250.3 513.74 238.88 498.02 250.3 504.03 231.83 488.31 220.41 507.74 220.41 513.74 201.94"/><polygon class="cls-3" points="447.76 211 456.88 228.15 476.01 224.78 462.52 238.75 471.63 255.89 454.18 247.38 440.69 261.35 443.39 242.12 425.94 233.6 445.06 230.23 447.76 211"/><polygon class="cls-3" points="581.68 210.97 584.38 230.2 603.51 233.57 586.05 242.09 588.76 261.32 575.27 247.35 557.81 255.86 566.93 238.72 553.44 224.75 572.56 228.12 581.68 210.97"/><circle class="cls-4" cx="146.1" cy="460.92" r="24.56"/><circle class="cls-4" cx="874.76" cy="460.92" r="24.56"/></g></g></svg>