<svg xmlns="http://www.w3.org/2000/svg" viewBox="0 0 400.17 400"><defs><style>.cls-1{fill:#64d86b;}.cls-2,.cls-3{fill:#010101;}.cls-2{opacity:0.2;}</style></defs><g id="Layer_2" data-name="Layer 2"><g id="Layer_1-2" data-name="Layer 1"><path class="cls-1" d="M0,399.78V.22A4.09,4.09,0,0,1,2.05,0Q199.93,0,397.81,0c2.61,0,2.33-.27,2.33,2.33q0,197.67,0,395.35a6.19,6.19,0,0,1-.12,2.06,4.09,4.09,0,0,1-2,.18q-198,0-395.91,0A4.12,4.12,0,0,1,0,399.78Z"/><path class="cls-2" d="M320.94,365.53c-16.28-.14-31.34-3.38-44.9-12.08a67.07,67.07,0,0,1-22.85-24.75c-.68-1.24-.5-1.74.72-2.44q13.86-7.9,27.63-16c1.13-.66,1.67-.56,2.36.57a48.17,48.17,0,0,0,10.78,12.7c11.7,9.3,24.77,11,38.69,6.29a17,17,0,0,0,11.48-11.57c2.06-7-.38-14-6.37-18.8a59.23,59.23,0,0,0-11.82-6.84c-9-4.24-18.34-7.7-27.24-12.14a82.2,82.2,0,0,1-20.27-13.65c-11.2-10.64-15.64-24-15.42-39.1.35-23.67,15.24-42,38.84-47.29,14.49-3.27,28.88-2.71,42.76,3,11.72,4.78,19.86,13.55,26.17,24.24.48.82.27,1.17-.46,1.64q-13.62,8.7-27.19,17.47c-.91.58-1.25.3-1.72-.52a34.41,34.41,0,0,0-6.69-8.71c-7.25-6.48-15.7-8-24.63-4.73-12.72,4.62-12.1,20-5.91,26.33a34.69,34.69,0,0,0,8.93,6.38c7.63,4,15.72,7,23.56,10.58,9.49,4.29,18.72,9,26.89,15.6,11.69,9.43,17.72,21.73,18.61,36.63.64,10.56-.73,20.76-6,30.14-6.61,11.71-16.88,18.8-29.37,23A84.58,84.58,0,0,1,320.94,365.53Z"/><path class="cls-3" d="M231.87,249c0,21.75.14,43.5-.07,65.25a56.53,56.53,0,0,1-6.12,25.09,43.73,43.73,0,0,1-26.82,22.72,72.59,72.59,0,0,1-46-.24c-15-5.06-25.56-15.31-32.63-29.33-.5-1-.4-1.47.59-2.06Q135,322,149,313.41c1-.62,1.42-.5,2,.52a71.65,71.65,0,0,0,6.92,10.45c7.52,9.29,20,8.82,27.25,5.57,5.55-2.48,7.62-7.49,8.66-13.05a52.07,52.07,0,0,0,.73-9.66q0-62,0-124c0-2.9-.36-2.46,2.55-2.47,11,0,21.94,0,32.91,0,1.74,0,2.06.51,2.06,2.12q-.09,33.1,0,66.2Z"/><path class="cls-3" d="M75,239v53.44H62V260.37l-12,32.05H39.55l-12-32.13v32.13h-13V239H29.88l15,37,14.84-37Z"/><path class="cls-3" d="M117.66,283h-20l-3.19,9.44H80.89L100.23,239H115.3l19.34,53.44H120.86Zm-3.35-10.05-6.62-19.56-6.55,19.56Z"/><path class="cls-3" d="M167.75,292.42l-11.11-20.17h-3.12v20.17h-13V239h21.85a23.94,23.94,0,0,1,10.77,2.21,15.19,15.19,0,0,1,6.66,6.05A16.9,16.9,0,0,1,182,255.8a15.87,15.87,0,0,1-3,9.52,16.19,16.19,0,0,1-8.87,5.94l12.34,21.16ZM153.52,263h8.07a7.41,7.41,0,0,0,5.37-1.76,6.59,6.59,0,0,0,1.78-4.94,6.42,6.42,0,0,0-1.78-4.8,7.4,7.4,0,0,0-5.37-1.75h-8.07Z"/><path class="cls-3" d="M271.82,283H251.88l-3.2,9.44H235.05L254.39,239h15.07l19.34,53.44H275Zm-3.35-10.05-6.62-19.56-6.55,19.56Z"/><path class="cls-3" d="M342.48,292.42h-13l-21.78-33v33h-13V239h13l21.78,33.12V239h13Z"/></g></g></svg>