<svg id="Layer_1" data-name="Layer 1" xmlns="http://www.w3.org/2000/svg" viewBox="0 0 789.88 435.7"><defs><style>.cls-1{fill:#fff;}.cls-2{fill:#010101;}</style></defs><g id="Layer_2" data-name="Layer 2"><g id="Layer_1-2" data-name="Layer 1-2"><path class="cls-1" d="M602.86,259.35A7.66,7.66,0,0,1,595.2,267H508.56a2.1,2.1,0,0,1-2.09-2.1V29.64a10.09,10.09,0,0,1,9.75-10.17,9.94,9.94,0,0,1,10.12,9.76V251.67h68.83a7.66,7.66,0,0,1,7.69,7.63Z" transform="translate(0 -0.01)"/><path class="cls-2" d="M396.05,265.61a50.82,50.82,0,0,0-50.57-49.16,50.31,50.31,0,0,0-38.87,18.2V146.93a19.9,19.9,0,0,1,19.88-19.87l17,.17a2.47,2.47,0,0,0,2.5-2.4l2.19-76.49a32.74,32.74,0,0,1,32.89-31.95H447a7.43,7.43,0,0,1,7.23,5.67L488.77,163.4c.2.85.27,7.93.37,16.89,0,3.68.08,7.76.13,12l-.12,40.91a50.59,50.59,0,0,0-88.91,32.38ZM371.61,126.16l38.06,38.44h56.49L436.11,40h-64.5Z" transform="translate(0 -0.01)"/><path class="cls-2" d="M447,16.89a6.91,6.91,0,0,1,6.74,5.29L488.3,163.51c.18.84.26,8.25.35,16.83,0,3.66.08,7.73.13,12l-.11,39.57a51.09,51.09,0,0,0-88.91,33.2h-3.22a51.1,51.1,0,0,0-89.42-31.82V180.37h0V146.93a19.38,19.38,0,0,1,19.38-19.37h.19l16.87.17a3,3,0,0,0,3-2.89l1.09-38,1.1-38.47A32.4,32.4,0,0,1,381.14,16.9H447M409.46,165.1H466.8l-.3-1.23L436.69,40.29l-.19-.76H371.11v86.84l.29.29,37.77,38.15.29.29M447,15.89H381.12a33.4,33.4,0,0,0-33.39,32.44l-2.19,76.48a2,2,0,0,1-2,1.92h0l-16.83-.17h-.2a20.38,20.38,0,0,0-20.38,20.37v32.44h0v56.69a50.1,50.1,0,0,1,89.45,30.05h5.17a50.09,50.09,0,0,1,88.92-31.51l.12-42.25h0c-.2-15.12-.22-27.77-.51-29L454.71,21.94A8,8,0,0,0,447,15.89ZM409.88,164.1,372.11,126V40.53h63.6L465.53,164.1Z" transform="translate(0 -0.01)"/><ellipse class="cls-1" cx="345.78" cy="266.51" rx="38.76" ry="38.74"/><ellipse class="cls-1" cx="451.04" cy="266.15" rx="38.76" ry="38.74"/><circle class="cls-2" cx="345.78" cy="266.51" r="4.77"/><circle class="cls-2" cx="451.04" cy="266.15" r="4.77"/><path class="cls-2" d="M329.74.72h0a10.18,10.18,0,0,1,5.74,13.2L214.59,321a10.18,10.18,0,0,1-13.2,5.74h0a10.18,10.18,0,0,1-5.74-13.2L316.54,6.46A10.18,10.18,0,0,1,329.74.72Z" transform="translate(0 -0.01)"/><path class="cls-2" d="M179.52,288.6A8.82,8.82,0,0,1,181,301a8.65,8.65,0,0,1-1.45,1.45,12.94,12.94,0,0,1-16.22,0L1.82,164.67a5.16,5.16,0,0,1-.6-7.27,4.86,4.86,0,0,1,.6-.6l11.6-9.9L163.66,18.72a12.91,12.91,0,0,1,16.22,0,8.81,8.81,0,0,1,1.47,12.37,8.52,8.52,0,0,1-1.47,1.47L29.64,160.73Z" transform="translate(0 -0.01)"/><path class="cls-2" d="M606.65,32.55a8.8,8.8,0,0,1-1.47-12.36,8.89,8.89,0,0,1,1.47-1.47,12.9,12.9,0,0,1,16.21,0L784.32,156.46a5.2,5.2,0,0,1,.59,7.33,5.48,5.48,0,0,1-.59.59l-11.58,9.88L622.5,302.43a12.9,12.9,0,0,1-16.21,0,8.8,8.8,0,0,1-1.47-12.36,8.52,8.52,0,0,1,1.47-1.47L756.53,160.42Z" transform="translate(0 -0.01)"/><path class="cls-1" d="M99.68,365.05l-32.5,69.7H57l-6.3-56.1-26.6,56.1-10.2.1-7.2-69.8h9.8L21.3,424l27.1-58.9H58.7l5.6,58.7,25.6-58.7Z" transform="translate(0 -0.01)"/><path class="cls-1" d="M104.83,392.4a32.32,32.32,0,0,1,11.1-9.85,29,29,0,0,1,13.95-3.5q7.2,0,11.9,3.1a16.12,16.12,0,0,1,6.5,7.8l1.8-10h9.2l-9.7,54.8h-9.2l1.9-10.2a28.17,28.17,0,0,1-9.5,7.95,27.12,27.12,0,0,1-13,3.15,22.72,22.72,0,0,1-11.3-2.75,19,19,0,0,1-7.6-7.85,24.78,24.78,0,0,1-2.7-11.8,32,32,0,0,1,.6-6.1A35.76,35.76,0,0,1,104.83,392.4Zm40.85,10.35q0-7.31-4.35-11.55a15.12,15.12,0,0,0-11.05-4.2,21,21,0,0,0-9.75,2.4,22.38,22.38,0,0,0-8,7,26.05,26.05,0,0,0-4.4,10.8,25.37,25.37,0,0,0-.4,4.6q0,7.4,4.3,11.65a15,15,0,0,0,11,4.25,20.62,20.62,0,0,0,9.75-2.45,23.22,23.22,0,0,0,8-7.1,26,26,0,0,0,4.45-10.85A23.17,23.17,0,0,0,145.68,402.75Z" transform="translate(0 -0.01)"/><path class="cls-1" d="M190.28,382a21.74,21.74,0,0,1,11.4-3l-1.7,9.4h-2.4a18.36,18.36,0,0,0-11.85,3.8Q181,396,179.38,405l-5.3,29.8H165l9.7-54.8h9.1L182,390.4A24.47,24.47,0,0,1,190.28,382Z" transform="translate(0 -0.01)"/><path class="cls-1" d="M247.73,381.7a18.26,18.26,0,0,1,7.7,7.4,21.82,21.82,0,0,1,2.65,10.9,32.28,32.28,0,0,1-.5,5.1,35.69,35.69,0,0,1-1.3,5.4h-43.8c-.13,1.33-.2,2.3-.2,2.9q0,6.9,4.15,10.75A15.37,15.37,0,0,0,227.28,428a19.32,19.32,0,0,0,10.35-2.75,17.92,17.92,0,0,0,6.75-7.35h9.8a30.45,30.45,0,0,1-28.3,17.8q-10.31,0-16.55-5.95t-6.25-16.25a33.92,33.92,0,0,1,.6-6.2,35.68,35.68,0,0,1,6.1-14.9,31.4,31.4,0,0,1,26-13.3A25.34,25.34,0,0,1,247.73,381.7Zm1,18.45q0-6.4-4-9.9a15.58,15.58,0,0,0-10.55-3.5,19.88,19.88,0,0,0-12.7,4.55,22.41,22.41,0,0,0-7.7,12.55h34.7a25.46,25.46,0,0,0,.25-3.7Z" transform="translate(0 -0.01)"/><path class="cls-1" d="M314.58,383.5q5,4.54,5,13.15a31.34,31.34,0,0,1-.5,5.8l-5.7,32.3h-9l5.5-31a23.16,23.16,0,0,0,.4-4.4q0-6.11-3.35-9.3t-9.35-3.2a17.74,17.74,0,0,0-12.25,4.5q-5.06,4.5-6.55,13.1v-.2l-5.4,30.5h-9.1l13.1-74h9.1l-4.8,27.1a23,23,0,0,1,8.65-6.55,26.61,26.61,0,0,1,11.05-2.3Q309.59,379,314.58,383.5Z" transform="translate(0 -0.01)"/><path class="cls-1" d="M340.23,432.8a20.24,20.24,0,0,1-8.15-8,23.94,23.94,0,0,1-2.9-11.95,34.56,34.56,0,0,1,4.3-17.05,32.26,32.26,0,0,1,28.7-16.75,25.67,25.67,0,0,1,12.25,2.85,20.36,20.36,0,0,1,8.3,8,23.79,23.79,0,0,1,2.95,12.1,33.74,33.74,0,0,1-4.4,17,32.82,32.82,0,0,1-28.9,16.7A25.07,25.07,0,0,1,340.23,432.8Zm24.95-8.4a24.5,24.5,0,0,0,8.15-9.4,27.35,27.35,0,0,0,2.95-12.55q0-7.6-4.4-11.65a15.6,15.6,0,0,0-11-4.05,19.79,19.79,0,0,0-11.6,3.55,23.47,23.47,0,0,0-7.9,9.45,29.19,29.19,0,0,0-2.8,12.7q0,7.4,4.2,11.45a14.79,14.79,0,0,0,10.7,4.05,20.26,20.26,0,0,0,11.7-3.55Z" transform="translate(0 -0.01)"/><path class="cls-1" d="M450.58,380l-9.7,54.8h-9.1l1.4-8a22,22,0,0,1-8.4,6.5,25.5,25.5,0,0,1-10.6,2.3q-8.6,0-13.75-4.65t-5.15-13.35a37.61,37.61,0,0,1,.5-5.5l5.7-32.1h9l-5.4,30.9a23.16,23.16,0,0,0-.4,4.4q0,6.09,3.35,9.25t9.35,3.15a17.74,17.74,0,0,0,12.25-4.5q5.06-4.5,6.45-13.1v.3l5.4-30.4Z" transform="translate(0 -0.01)"/><path class="cls-1" d="M461.48,431.55a13,13,0,0,1-5.5-11,12.1,12.1,0,0,1,.1-1.9H465a8,8,0,0,0,2.55,7q3,2.7,8.55,2.7a17,17,0,0,0,9-2.15,6.75,6.75,0,0,0,3.45-6.05,6,6,0,0,0-2.8-5.2,42.94,42.94,0,0,0-8.6-4.1,79.77,79.77,0,0,1-8.4-3.6,16.34,16.34,0,0,1-5.6-4.75,12.54,12.54,0,0,1-2.3-7.75,13.44,13.44,0,0,1,2.65-8.2A16.83,16.83,0,0,1,471,381a28.33,28.33,0,0,1,10.85-1.95q8.4,0,13.8,4.2a13.27,13.27,0,0,1,5.4,11,14.81,14.81,0,0,1-.1,2h-8.7l.1-1.2a7.58,7.58,0,0,0-3-6.35,12.84,12.84,0,0,0-8.05-2.35,13.73,13.73,0,0,0-8.05,2.2,6.86,6.86,0,0,0-3.15,5.9A6.35,6.35,0,0,0,473,400a46.89,46.89,0,0,0,9,4.4,79,79,0,0,1,8.2,3.65,16,16,0,0,1,5.3,4.55,11.7,11.7,0,0,1,2.2,7.3,13.18,13.18,0,0,1-2.85,8.4,17.8,17.8,0,0,1-7.85,5.5,31.77,31.77,0,0,1-11.3,1.9Q467,435.65,461.48,431.55Z" transform="translate(0 -0.01)"/><path class="cls-1" d="M553.93,381.7a18.26,18.26,0,0,1,7.7,7.4,21.82,21.82,0,0,1,2.65,10.9,32.28,32.28,0,0,1-.5,5.1,35.69,35.69,0,0,1-1.3,5.4h-43.8c-.13,1.33-.2,2.3-.2,2.9q0,6.9,4.15,10.75A15.37,15.37,0,0,0,533.48,428a19.32,19.32,0,0,0,10.35-2.75,17.92,17.92,0,0,0,6.75-7.35h9.8a30.45,30.45,0,0,1-28.3,17.8q-10.3,0-16.55-5.95t-6.25-16.25a33.92,33.92,0,0,1,.6-6.2,35.68,35.68,0,0,1,6.1-14.9,31.4,31.4,0,0,1,26-13.3A25.34,25.34,0,0,1,553.93,381.7Zm1,18.45q0-6.4-4-9.9t-10.55-3.5a19.88,19.88,0,0,0-12.7,4.55,22.41,22.41,0,0,0-7.7,12.55h34.7a25.42,25.42,0,0,0,.2-3.7Z" transform="translate(0 -0.01)"/><path class="cls-1" d="M657.53,372.25q8.25,7.2,8.25,20a45.91,45.91,0,0,1-8.45,26.35,38.15,38.15,0,0,1-14.9,12A48.69,48.69,0,0,1,622,434.75H600.3l12.4-69.7h21.7Q649.26,365.05,657.53,372.25ZM645.08,420.4q8.4-7.35,10.7-20.35a40.82,40.82,0,0,0,.6-6.8q0-9.9-5.9-15.35t-17.4-5.45h-12.6l-9.8,55.3h12.6Q636.68,427.75,645.08,420.4Z" transform="translate(0 -0.01)"/><path class="cls-1" d="M716.43,381.7a18.37,18.37,0,0,1,7.7,7.4,22,22,0,0,1,2.65,10.9,32.28,32.28,0,0,1-.5,5.1,35.69,35.69,0,0,1-1.3,5.4h-43.8c-.14,1.33-.2,2.3-.2,2.9q0,6.9,4.15,10.75T696,428a19.32,19.32,0,0,0,10.35-2.75,18.18,18.18,0,0,0,6.75-7.35h9.8a30.45,30.45,0,0,1-28.3,17.8q-10.3,0-16.55-5.95T671.8,413.5a33.92,33.92,0,0,1,.6-6.2,35.68,35.68,0,0,1,6.1-14.9,31.4,31.4,0,0,1,26-13.3A25.29,25.29,0,0,1,716.43,381.7Zm1,18.45q0-6.4-4-9.9t-10.55-3.5a19.88,19.88,0,0,0-12.7,4.55,22.41,22.41,0,0,0-7.7,12.55h34.7a25.42,25.42,0,0,0,.2-3.7Z" transform="translate(0 -0.01)"/><path class="cls-1" d="M754.88,426.15l25.2-46.2h9.8l-31.2,54.8H748L736.18,380H746Z" transform="translate(0 -0.01)"/></g></g></svg>